<mxfile host="app.diagrams.net" agent="Mozilla/5.0 (Macintosh; Intel Mac OS X 10_15_7) AppleWebKit/605.1.15 (KHTML, like Gecko) Version/18.4 Safari/605.1.15" version="27.0.6">
  <diagram name="Page-1" id="qCQBoRJt0O49EkEic1T_">
    <mxGraphModel dx="1216" dy="821" grid="1" gridSize="10" guides="1" tooltips="1" connect="1" arrows="1" fold="1" page="1" pageScale="1" pageWidth="827" pageHeight="1169" math="0" shadow="0">
      <root>
        <mxCell id="0" />
        <mxCell id="1" parent="0" />
        <!-- Inicio -->
        <mxCell id="start" value="Inicio" style="ellipse;whiteSpace=wrap;html=1;" vertex="1" parent="1">
          <mxGeometry x="340" y="50" width="80" height="40" as="geometry" />
        </mxCell>
        <!-- Ingresar bebida y tamaño -->
        <mxCell id="input" value="Ingresar bebida (C, L, A) y tamaño (P, G)" style="rounded=1;whiteSpace=wrap;html=1;" vertex="1" parent="1">
          <mxGeometry x="300" y="120" width="160" height="40" as="geometry" />
        </mxCell>
        <!-- ¿Bebida es C, L o A? -->
        <mxCell id="decision1" value="¿Bebida es C, L o A?" style="rhombus;whiteSpace=wrap;html=1;" vertex="1" parent="1">
          <mxGeometry x="320" y="200" width="120" height="60" as="geometry" />
        </mxCell>
        <!-- No: Error -->
        <mxCell id="error1" value="Error: Bebida inválida" style="rounded=1;whiteSpace=wrap;html=1;" vertex="1" parent="1">
          <mxGeometry x="200" y="280" width="120" height="40" as="geometry" />
        </mxCell>
        <!-- Sí: ¿Tamaño es P o G? -->
        <mxCell id="decision2" value="¿Tamaño es P o G?" style="rhombus;whiteSpace=wrap;html=1;" vertex="1" parent="1">
          <mxGeometry x="460" y="200" width="120" height="60" as="geometry" />
        </mxCell>
        <!-- No: Error -->
        <mxCell id="error2" value="Error: Tamaño inválido" style="rounded=1;whiteSpace=wrap;html=1;" vertex="1" parent="1">
          <mxGeometry x="600" y="280" width="120" height="40" as="geometry" />
        </mxCell>
        <!-- Sí: Establecer precio base -->
        <mxCell id="price" value="Establecer precio base según bebida y tamaño" style="rounded=1;whiteSpace=wrap;html=1;" vertex="1" parent="1">
          <mxGeometry x="400" y="280" width="160" height="40" as="geometry" />
        </mxCell>
        <!-- ¿Aplica descuento? -->
        <mxCell id="decision3" value="¿Aplica descuento? (C/G, A/G: 50%, L/P, A/P: 40%)" style="rhombus;whiteSpace=wrap;html=1;" vertex="1" parent="1">
          <mxGeometry x="400" y="360" width="200" height="60" as="geometry" />
        </mxCell>
        <!-- Sí: Calcular precio con descuento -->
        <mxCell id="discount" value="Calcular precio con descuento" style="rounded=1;whiteSpace=wrap;html=1;" vertex="1" parent="1">
          <mxGeometry x="340" y="440" width="160" height="40" as="geometry" />
        </mxCell>
        <!-- Mostrar resultado -->
        <mxCell id="output" value="Mostrar bebida, tamaño, precio base y precio final (si hay descuento)" style="rounded=1;whiteSpace=wrap;html=1;" vertex="1" parent="1">
          <mxGeometry x="340" y="520" width="200" height="40" as="geometry" />
        </mxCell>
        <!-- Fin -->
        <mxCell id="end" value="Fin" style="ellipse;whiteSpace=wrap;html=1;" vertex="1" parent="1">
          <mxGeometry x="340" y="600" width="80" height="40" as="geometry" />
        </mxCell>
        <!-- Conexiones -->
        <mxCell id="edge1" value="" style="edgeStyle=orthogonalEdgeStyle;rounded=0;orthogonalLoop=1;jettySize=auto;html=1;" edge="1" parent="1" source="start" target="input">
          <mxGeometry width="50" height="50" as="geometry" />
        </mxCell>
        <mxCell id="edge2" value="" style="edgeStyle=orthogonalEdgeStyle;rounded=0;orthogonalLoop=1;jettySize=auto;html=1;" edge="1" parent="1" source="input" target="decision1">
          <mxGeometry width="50" height="50" as="geometry" />
        </mxCell>
        <mxCell id="edge3" value="No" style="edgeStyle=orthogonalEdgeStyle;rounded=0;orthogonalLoop=1;jettySize=auto;html=1;" edge="1" parent="1" source="decision1" target="error1">
          <mxGeometry width="50" height="50" as="geometry" />
        </mxCell>
        <mxCell id="edge4" value="Sí" style="edgeStyle=orthogonalEdgeStyle;rounded=0;orthogonalLoop=1;jettySize=auto;html=1;" edge="1" parent="1" source="decision1" target="decision2">
          <mxGeometry width="50" height="50" as="geometry" />
        </mxCell>
        <mxCell id="edge5" value="No" style="edgeStyle=orthogonalEdgeStyle;rounded=0;orthogonalLoop=1;jettySize=auto;html=1;" edge="1" parent="1" source="decision2" target="error2">
          <mxGeometry width="50" height="50" as="geometry" />
        </mxCell>
        <mxCell id="edge6" value="Sí" style="edgeStyle=orthogonalEdgeStyle;rounded=0;orthogonalLoop=1;jettySize=auto;html=1;" edge="1" parent="1" source="decision2" target="price">
          <mxGeometry width="50" height="50" as="geometry" />
        </mxCell>
        <mxCell id="edge7" value="" style="edgeStyle=orthogonalEdgeStyle;rounded=0;orthogonalLoop=1;jettySize=auto;html=1;" edge="1" parent="1" source="price" target="decision3">
          <mxGeometry width="50" height="50" as="geometry" />
        </mxCell>
        <mxCell id="edge8" value="Sí" style="edgeStyle=orthogonalEdgeStyle;rounded=0;orthogonalLoop=1;jettySize=auto;html=1;" edge="1" parent="1" source="decision3" target="discount">
          <mxGeometry width="50" height="50" as="geometry" />
        </mxCell>
        <mxCell id="edge9" value="No" style="edgeStyle=orthogonalEdgeStyle;rounded=0;orthogonalLoop=1;jettySize=auto;html=1;" edge="1" parent="1" source="decision3" target="output">
          <mxGeometry width="50" height="50" as="geometry" />
        </mxCell>
        <mxCell id="edge10" value="" style="edgeStyle=orthogonalEdgeStyle;rounded=0;orthogonalLoop=1;jettySize=auto;html=1;" edge="1" parent="1" source="discount" target="output">
          <mxGeometry width="50" height="50" as="geometry" />
        </mxCell>
        <mxCell id="edge11" value="" style="edgeStyle=orthogonalEdgeStyle;rounded=0;orthogonalLoop=1;jettySize=auto;html=1;" edge="1" parent="1" source="output" target="end">
          <mxGeometry width="50" height="50" as="geometry" />
        </mxCell>
      </root>
    </mxGraphModel>
  </diagram>
</mxfile>
